<?xml version="1.0" standalone="no"?>
<!DOCTYPE svg PUBLIC "-//W3C//DTD SVG 20010904//EN"
 "http://www.w3.org/TR/2001/REC-SVG-20010904/DTD/svg10.dtd">
<svg version="1.0" xmlns="http://www.w3.org/2000/svg"
 width="180.000000pt" height="180.000000pt" viewBox="0 0 180.000000 180.000000"
 preserveAspectRatio="xMidYMid meet">
<metadata>
Created by potrace 1.14, written by Peter Selinger 2001-2017
</metadata>
<g transform="translate(0.000000,180.000000) scale(0.100000,-0.100000)"
fill="#000000" stroke="none">
<path d="M429 1741 c-93 -23 -173 -90 -194 -161 -4 -14 -26 -45 -48 -70 -62
-71 -81 -121 -80 -220 0 -94 22 -156 68 -186 25 -16 55 -16 58 1 0 6 21 22 45
38 24 15 53 39 66 54 l23 26 41 -40 c23 -22 46 -52 51 -66 6 -14 10 -79 10
-144 -1 -65 2 -129 5 -143 3 -14 8 -38 12 -55 25 -126 112 -266 216 -348 26
-21 77 -51 115 -68 37 -17 76 -35 85 -40 10 -5 25 -9 33 -9 12 0 15 -13 15
-57 l0 -58 -72 0 c-66 0 -73 -2 -73 -20 0 -17 8 -20 54 -23 l54 -3 -33 -34
c-20 -21 -30 -40 -27 -49 11 -27 31 -18 89 42 l57 57 2 66 2 66 33 -7 c18 -4
61 -8 96 -8 l63 0 2 -40 c1 -32 -2 -41 -15 -41 -9 0 -37 -1 -62 -1 -53 -1 -75
-12 -67 -34 5 -12 20 -16 59 -16 l52 0 -33 -34 c-21 -22 -31 -41 -28 -50 11
-27 31 -18 90 42 l57 58 0 67 c0 49 4 67 13 67 24 0 132 59 157 85 l24 25 45
-48 c97 -102 203 -165 231 -136 12 13 -75 199 -138 296 -9 14 -35 57 -56 95
-22 37 -47 79 -57 93 -9 14 -58 88 -109 165 -141 213 -281 400 -383 511 -46
49 -107 129 -107 139 0 7 -30 43 -89 107 -99 106 -217 143 -352 109z"/>
</g>
</svg>
